<svg width="128" height="128" viewBox="0 0 128 128" fill="none" xmlns="http://www.w3.org/2000/svg">
<g clip-path="url(#clip0)">
<circle cx="64" cy="64" r="64" fill="#4B154B"/>
<path opacity="0.3" fill-rule="evenodd" clip-rule="evenodd" d="M78.3784 126.378L16 64L40 56L48 32L116.546 100.546C107.61 113.371 94.0992 122.77 78.3784 126.378Z" fill="url(#paint0_linear)"/>
<path opacity="0.25" fill-rule="evenodd" clip-rule="evenodd" d="M122.344 90.3439C125.977 82.3096 128 73.391 128 64L88 24L83 35L72 40L122.344 90.3439Z" fill="url(#paint1_linear)"/>
<g filter="url(#filter0_dii)">
<path d="M48 32L38 54L16 64L38 74L48 96L58 74L80 64L58 54L48 32Z" fill="#ECB22D"/>
<path d="M82.96 35L88 24L93 35L104 40L93 45.04L88 56L82.96 45.04L72 40L82.96 35Z" fill="#36C5F1"/>
<path d="M82.96 82.96L88 72L93 82.96L104 88L93 93L88 104L82.96 93L72 88L82.96 82.96Z" fill="#E01E5A"/>
</g>
<circle opacity="0.2" cx="64" cy="64" r="64" fill="url(#paint2_radial)"/>
</g>
<defs>
<filter id="filter0_dii" x="14" y="14" width="106" height="106" filterUnits="userSpaceOnUse" color-interpolation-filters="sRGB">
<feFlood flood-opacity="0" result="BackgroundImageFix"/>
<feColorMatrix in="SourceAlpha" type="matrix" values="0 0 0 0 0 0 0 0 0 0 0 0 0 0 0 0 0 0 127 0"/>
<feOffset dx="3" dy="3"/>
<feGaussianBlur stdDeviation="2.5"/>
<feColorMatrix type="matrix" values="0 0 0 0 0 0 0 0 0 0 0 0 0 0 0 0 0 0 0.3 0"/>
<feBlend mode="normal" in2="BackgroundImageFix" result="effect1_dropShadow"/>
<feBlend mode="normal" in="SourceGraphic" in2="effect1_dropShadow" result="shape"/>
<feColorMatrix in="SourceAlpha" type="matrix" values="0 0 0 0 0 0 0 0 0 0 0 0 0 0 0 0 0 0 127 0" result="hardAlpha"/>
<feOffset dy="1.5"/>
<feComposite in2="hardAlpha" operator="arithmetic" k2="-1" k3="1"/>
<feColorMatrix type="matrix" values="0 0 0 0 1 0 0 0 0 1 0 0 0 0 1 0 0 0 0.25 0"/>
<feBlend mode="normal" in2="shape" result="effect2_innerShadow"/>
<feColorMatrix in="SourceAlpha" type="matrix" values="0 0 0 0 0 0 0 0 0 0 0 0 0 0 0 0 0 0 127 0" result="hardAlpha"/>
<feOffset dy="-1.25"/>
<feComposite in2="hardAlpha" operator="arithmetic" k2="-1" k3="1"/>
<feColorMatrix type="matrix" values="0 0 0 0 0 0 0 0 0 0 0 0 0 0 0 0 0 0 0.1 0"/>
<feBlend mode="normal" in2="effect2_innerShadow" result="effect3_innerShadow"/>
</filter>
<linearGradient id="paint0_linear" x1="47" y1="32" x2="116" y2="101" gradientUnits="userSpaceOnUse">
<stop/>
<stop offset="1" stop-opacity="0.03"/>
</linearGradient>
<linearGradient id="paint1_linear" x1="88" y1="24" x2="136" y2="72" gradientUnits="userSpaceOnUse">
<stop/>
<stop offset="1" stop-opacity="0"/>
</linearGradient>
<radialGradient id="paint2_radial" cx="0" cy="0" r="1" gradientUnits="userSpaceOnUse" gradientTransform="rotate(45) scale(154.149)">
<stop offset="0.176796" stop-color="white"/>
<stop offset="0.458525" stop-color="white" stop-opacity="0.5"/>
<stop offset="1" stop-color="white" stop-opacity="0"/>
</radialGradient>
<clipPath id="clip0">
<rect width="128" height="128" fill="white"/>
</clipPath>
</defs>
</svg>
